<svg width="34" height="34" viewBox="0 0 34 34" fill="none" xmlns="http://www.w3.org/2000/svg">
<rect width="34" height="34" rx="10" fill="white"/>
<path fill-rule="evenodd" clip-rule="evenodd" d="M19.6339 9.65359C19.3735 9.91394 19.3735 10.336 19.6339 10.5964L22.374 13.3365H14.3681C11.2739 13.3365 8.76551 15.8449 8.76551 18.9391C8.76551 22.0333 11.2739 24.5417 14.3681 24.5417H17.0604C17.4286 24.5417 17.7271 24.2432 17.7271 23.875C17.7271 23.5068 17.4286 23.2083 17.0604 23.2083H14.3681C12.0102 23.2083 10.0988 21.2969 10.0988 18.9391C10.0988 16.5813 12.0102 14.6699 14.3681 14.6699H22.374L19.6339 17.41C19.3735 17.6704 19.3735 18.0925 19.6339 18.3528C19.8942 18.6132 20.3163 18.6132 20.5767 18.3528L24.9263 14.0032L20.5767 9.65359C20.3163 9.39324 19.8942 9.39324 19.6339 9.65359Z" fill="#CAD4DD"/>
</svg>
